<?xml version="1.0"?>

<svg xmlns="http://www.w3.org/2000/svg" id="Layer_1" version="1.1" viewBox="0 0 237 28" width="237" height="28">
  
  <defs>
    
  </defs>
  <path class="st0" d="M52.59,25.53c-2.13,0-4.02-.46-5.68-1.39-1.64-.93-2.93-2.26-3.85-4.01-.93-1.75-1.39-3.79-1.39-6.13s.48-4.35,1.45-6.1c.99-1.75,2.32-3.08,3.98-4.01,1.66-.95,3.5-1.42,5.5-1.42,1.87,0,3.5.35,4.86,1.04,1.39.67,2.48,1.56,3.28,2.65s1.32,2.26,1.55,3.51h-4.07c-.29-1.01-.92-1.88-1.86-2.62-.93-.76-2.15-1.14-3.66-1.14-1.33,0-2.51.33-3.54.98-1.03.63-1.84,1.56-2.43,2.78-.57,1.22-.85,2.66-.85,4.33s.28,3.11.85,4.33c.59,1.22,1.4,2.16,2.43,2.81,1.05.63,2.23.95,3.54.95,1.52,0,2.74-.37,3.66-1.11.95-.76,1.57-1.64,1.86-2.65h4.07c-.23,1.24-.75,2.41-1.55,3.51-.8,1.09-1.89,1.99-3.28,2.68-1.37.67-2.99,1.01-4.86,1.01h-.01ZM68.78,25.5c-1.62,0-2.99-.42-4.11-1.26-1.09-.86-1.64-2.07-1.64-3.63,0-1.2.33-2.14.98-2.81.67-.69,1.45-1.18,2.34-1.45.88-.27,1.92-.49,3.1-.66l1.17-.13c.82-.11,1.45-.23,1.89-.38.46-.15.8-.36,1.01-.63.23-.27.35-.66.35-1.17,0-.67-.25-1.2-.76-1.58-.48-.4-1.18-.6-2.08-.6s-1.6.18-2.15.54c-.55.34-.88.79-1.01,1.36h-4.14c.19-.91.59-1.71,1.2-2.4.63-.69,1.46-1.24,2.5-1.64,1.03-.4,2.24-.6,3.63-.6,1.47,0,2.69.2,3.66.6.97.38,1.68.95,2.15,1.71.48.76.73,1.67.73,2.75v7.67c0,.63.05,1.29.16,1.99.11.67.23,1.31.38,1.89h-3.76c-.21-.86-.34-1.71-.38-2.53l.19.19c-.44.78-1.13,1.44-2.05,1.99-.91.53-2.02.79-3.35.79h0ZM69.82,22.59c.8,0,1.51-.18,2.12-.54s1.08-.85,1.42-1.48c.34-.65.51-1.37.51-2.15v-2.31l.19.32c-.29.46-.68.81-1.17,1.04-.48.21-1.24.4-2.27.57-1.26.21-2.18.47-2.75.79-.57.32-.85.86-.85,1.64,0,.67.26,1.2.79,1.58.53.36,1.2.54,2.02.54h-.01ZM80.43,8.92h3.73v3.88l-.16-.13c.34-1.07.77-1.92,1.29-2.53.53-.63,1.17-1.08,1.93-1.36.76-.27,1.64-.38,2.65-.32v3.6c-1.22-.11-2.18-.03-2.87.22-.95.34-1.65.97-2.12,1.89-.44.93-.66,2.12-.66,3.57v7.3h-3.79s0-16.12,0-16.12ZM96.9,25.53c-1.37,0-2.6-.35-3.7-1.04-1.09-.69-1.96-1.68-2.59-2.97-.63-1.31-.95-2.82-.95-4.55s.32-3.23.95-4.52c.63-1.28,1.49-2.27,2.59-2.97,1.09-.69,2.33-1.04,3.7-1.04,1.2,0,2.23.26,3.1.79.88.53,1.54,1.21,1.96,2.05l-.16.28V2.95h3.79v22.11h-3.79v-2.59l.16.28c-.42.84-1.06,1.52-1.93,2.02-.86.51-1.91.76-3.13.76ZM97.66,22.53c.82,0,1.55-.24,2.18-.73.65-.48,1.15-1.15,1.48-1.99.36-.84.54-1.79.54-2.84s-.18-1.97-.54-2.81c-.34-.84-.83-1.49-1.48-1.96-.63-.48-1.36-.73-2.18-.73s-1.61.23-2.24.69c-.61.44-1.07,1.07-1.39,1.89-.32.82-.47,1.79-.47,2.91,0,1.71.36,3.06,1.07,4.07.72.99,1.73,1.48,3.03,1.48v.02ZM108.58,8.92h3.76v16.14h-3.76V8.92ZM108.29,3.04h4.29v3.92h-4.29v-3.92ZM122.54,25.53c-1.56,0-2.97-.36-4.23-1.07-1.26-.74-2.25-1.76-2.97-3.06-.72-1.31-1.07-2.78-1.07-4.42s.36-3.08,1.07-4.39,1.7-2.32,2.97-3.03c1.26-.74,2.67-1.11,4.23-1.11s2.94.37,4.2,1.11c1.26.72,2.25,1.73,2.97,3.03.71,1.31,1.07,2.77,1.07,4.39s-.36,3.12-1.07,4.42c-.72,1.31-1.71,2.33-2.97,3.06-1.26.72-2.66,1.07-4.2,1.07ZM122.54,22.46c.89,0,1.65-.21,2.31-.63.65-.42,1.16-1.04,1.52-1.86.38-.84.57-1.84.57-3s-.19-2.12-.57-2.94c-.36-.82-.86-1.44-1.52-1.86-.65-.44-1.42-.66-2.31-.66s-1.66.22-2.34.66c-.65.42-1.17,1.04-1.55,1.86-.36.82-.54,1.8-.54,2.94s.18,2.16.54,3c.38.82.9,1.44,1.55,1.86.67.42,1.45.63,2.34.63ZM131.77,23.57l13.74-19.68.25.47h-13.68v-1.42h14.78v1.48l-13.71,19.68-.25-.47h14.27v1.42h-15.41v-1.48h0ZM155.43,25.53c-1.45,0-2.75-.36-3.88-1.07-1.12-.74-2-1.75-2.65-3.03-.63-1.28-.95-2.74-.95-4.36s.32-3.07.95-4.36c.65-1.28,1.54-2.28,2.65-3,1.14-.74,2.43-1.11,3.88-1.11s2.72.37,3.85,1.11c1.14.72,2.02,1.72,2.65,3,.63,1.28.95,2.74.95,4.36s-.32,3.07-.95,4.36c-.63,1.28-1.52,2.3-2.65,3.03-1.14.72-2.42,1.07-3.85,1.07ZM155.43,24.26c1.16,0,2.18-.29,3.06-.88.9-.59,1.61-1.42,2.12-2.49.51-1.09.76-2.37.76-3.82s-.25-2.72-.76-3.79c-.51-1.09-1.21-1.94-2.12-2.53-.88-.59-1.91-.88-3.06-.88s-2.19.29-3.1.88c-.9.59-1.61,1.43-2.12,2.53-.51,1.07-.76,2.34-.76,3.79s.25,2.73.76,3.82c.51,1.07,1.21,1.91,2.12,2.49.91.59,1.94.88,3.1.88ZM172.28,25.53c-1.45,0-2.75-.36-3.88-1.07-1.12-.74-2-1.75-2.65-3.03-.63-1.28-.95-2.74-.95-4.36s.32-3.07.95-4.36c.65-1.28,1.54-2.28,2.65-3,1.14-.74,2.43-1.11,3.88-1.11s2.72.37,3.85,1.11c1.14.72,2.02,1.72,2.65,3,.63,1.28.95,2.74.95,4.36s-.32,3.07-.95,4.36c-.63,1.28-1.52,2.3-2.65,3.03-1.14.72-2.42,1.07-3.85,1.07ZM172.28,24.26c1.16,0,2.18-.29,3.06-.88.9-.59,1.61-1.42,2.12-2.49.51-1.09.76-2.37.76-3.82s-.25-2.72-.76-3.79c-.51-1.09-1.21-1.94-2.12-2.53-.89-.59-1.91-.88-3.06-.88s-2.19.29-3.09.88c-.91.59-1.61,1.43-2.12,2.53-.5,1.07-.76,2.34-.76,3.79s.25,2.73.76,3.82c.51,1.07,1.21,1.91,2.12,2.49.9.59,1.94.88,3.09.88ZM182.97,9.07h1.36v3.63l-.13-.25c.42-1.09,1.06-2.01,1.93-2.75.86-.74,1.96-1.11,3.28-1.11s2.32.38,3.1,1.14c.8.76,1.31,1.74,1.52,2.94l-.22.03c.38-1.28,1.05-2.28,2.02-3,.99-.74,2.08-1.11,3.28-1.11.99,0,1.87.2,2.65.6.78.4,1.39,1.02,1.83,1.86.44.82.66,1.85.66,3.1v10.9h-1.42v-10.49c0-1.54-.33-2.71-.98-3.51s-1.61-1.2-2.87-1.2c-1.39,0-2.52.52-3.38,1.55-.84,1.03-1.26,2.43-1.26,4.2v9.44h-1.45v-10.33c0-1.52-.33-2.71-.98-3.57-.63-.86-1.54-1.29-2.72-1.29-.84,0-1.63.23-2.37.69-.71.46-1.29,1.16-1.74,2.08-.44.91-.66,2.01-.66,3.32v9.1h-1.45v-15.98h0ZM214.79,25.53c-1.49,0-2.82-.35-3.98-1.04-1.14-.72-2.02-1.71-2.65-2.97-.61-1.28-.92-2.76-.92-4.42s.33-3.11.98-4.39c.67-1.31,1.57-2.32,2.68-3.03,1.14-.72,2.37-1.07,3.7-1.07,1.43,0,2.68.36,3.76,1.07,1.1.69,1.95,1.69,2.56,3,.61,1.28.93,2.8.95,4.55h-13.58v-1.26h12.6l-.41.6c-.04-2.02-.59-3.64-1.64-4.86s-2.46-1.83-4.23-1.83c-1.05,0-2.03.28-2.94.85-.89.57-1.59,1.37-2.12,2.4-.53,1.01-.79,2.17-.79,3.47v.63c0,1.41.25,2.65.76,3.73.51,1.05,1.21,1.87,2.12,2.46.93.57,2,.85,3.22.85,1.31,0,2.39-.28,3.25-.85s1.49-1.33,1.86-2.27h1.58c-.46,1.31-1.27,2.37-2.43,3.19-1.14.8-2.58,1.2-4.33,1.2h0ZM224.99,9.07h1.39v4.42l-.13-.13c.32-1.14.79-2.07,1.42-2.81.63-.74,1.38-1.25,2.24-1.55.86-.32,1.8-.44,2.81-.38v1.48c-1.41-.11-2.55.06-3.41.51-.93.51-1.64,1.28-2.15,2.34-.48,1.03-.73,2.34-.73,3.92v8.18h-1.45v-15.98h0Z"></path>
  <g>
    <circle class="st2" cx="13.07" cy="14" r="13.07"></circle>
    <circle class="st1" cx="12.75" cy="14.12" r="2.31"></circle>
    <circle class="st1" cx="16.76" cy="7.31" r=".93"></circle>
    <circle class="st1" cx="19.87" cy="10.49" r="1.32"></circle>
    <circle class="st1" cx="20.4" cy="15.27" r="1.65"></circle>
    <circle class="st1" cx="17.57" cy="20.1" r="2.01"></circle>
    <path class="st1" d="M12.78,22.93c-4.86,0-8.82-3.96-8.82-8.82S7.92,5.28,12.78,5.28v1.8c-3.87,0-7.02,3.15-7.02,7.02s3.15,7.02,7.02,7.02v1.8h0Z"></path>
  </g>
</svg>