<?xml version="1.0"?>

<svg xmlns="http://www.w3.org/2000/svg" id="Layer_1" version="1.1" viewBox="0 0 299 28" width="299" height="28">
  
  <defs>
    
  </defs>
  <path class="st1" d="M40.6,2.71h14.15v3.47h-10.77l.57-.57v7.04l-.57-.57h9.19v3.35h-9.19l.57-.57v9.95h-3.95V2.71ZM62.7,25.29c-1.56,0-2.97-.36-4.23-1.07-1.26-.74-2.25-1.76-2.97-3.06-.72-1.31-1.07-2.78-1.07-4.42s.36-3.08,1.07-4.39c.72-1.31,1.71-2.32,2.97-3.03,1.26-.74,2.67-1.11,4.23-1.11s2.94.37,4.2,1.11c1.26.72,2.25,1.73,2.97,3.03.72,1.31,1.07,2.77,1.07,4.39s-.36,3.12-1.07,4.42c-.72,1.31-1.71,2.33-2.97,3.06-1.26.72-2.66,1.07-4.2,1.07ZM62.7,22.23c.88,0,1.65-.21,2.31-.63.65-.42,1.16-1.04,1.52-1.86.38-.84.57-1.84.57-3s-.19-2.12-.57-2.94c-.36-.82-.86-1.44-1.52-1.86-.65-.44-1.42-.66-2.31-.66s-1.66.22-2.34.66c-.65.42-1.17,1.04-1.55,1.86-.36.82-.54,1.8-.54,2.94s.18,2.16.54,3c.38.82.89,1.44,1.55,1.86.67.42,1.45.63,2.34.63ZM78.05,25.29c-1.07,0-2.02-.22-2.84-.66-.8-.46-1.42-1.14-1.86-2.02-.44-.88-.66-1.97-.66-3.25v-10.67h3.76v10.07c0,1.12.22,1.97.66,2.56.44.57,1.13.85,2.05.85.59,0,1.14-.16,1.64-.47.51-.32.92-.81,1.23-1.48.32-.69.47-1.56.47-2.59v-8.94h3.79v16.14h-3.7v-2.56l.19.22c-.44.93-1.06,1.63-1.86,2.12-.8.46-1.76.69-2.87.69ZM89.28,8.68h3.7v2.65l-.16-.28c.46-.84,1.11-1.53,1.93-2.05.84-.53,1.85-.79,3.03-.79,1.09,0,2.04.23,2.84.69.82.44,1.44,1.11,1.86,1.99.44.86.66,1.92.66,3.16v10.77h-3.79v-10.45c0-.93-.22-1.66-.66-2.21-.42-.57-1.09-.85-2.02-.85-.63,0-1.22.16-1.77.47-.55.32-.99.82-1.33,1.52-.34.67-.51,1.52-.51,2.53v9h-3.79V8.68ZM112.17,25.29c-1.37,0-2.6-.35-3.69-1.04-1.1-.69-1.96-1.68-2.59-2.97-.63-1.31-.95-2.82-.95-4.55s.32-3.23.95-4.52c.63-1.28,1.49-2.27,2.59-2.97,1.1-.69,2.33-1.04,3.69-1.04,1.2,0,2.23.26,3.1.79.88.53,1.54,1.21,1.96,2.05l-.16.28V2.71h3.79v22.11h-3.79v-2.59l.16.28c-.42.84-1.06,1.52-1.93,2.02-.86.51-1.91.76-3.13.76ZM112.93,22.29c.82,0,1.55-.24,2.18-.73.65-.48,1.15-1.15,1.48-1.99.36-.84.54-1.79.54-2.84s-.18-1.97-.54-2.81c-.34-.84-.83-1.49-1.48-1.96-.63-.48-1.36-.73-2.18-.73-.86,0-1.61.23-2.24.69-.61.44-1.07,1.07-1.39,1.89-.32.82-.47,1.79-.47,2.91,0,1.71.36,3.06,1.07,4.07.72.99,1.73,1.48,3.03,1.48ZM128.39,25.26c-1.62,0-2.99-.42-4.1-1.26-1.1-.86-1.64-2.07-1.64-3.63,0-1.2.33-2.14.98-2.81.67-.69,1.45-1.18,2.34-1.45.89-.27,1.92-.49,3.09-.66l1.17-.13c.82-.11,1.45-.23,1.9-.38.46-.15.8-.36,1.01-.63.23-.27.35-.66.35-1.17,0-.67-.25-1.2-.76-1.58-.48-.4-1.18-.6-2.08-.6s-1.6.18-2.15.54c-.55.34-.88.79-1.01,1.36h-4.14c.19-.91.59-1.71,1.2-2.4.63-.69,1.46-1.24,2.49-1.64,1.03-.4,2.24-.6,3.63-.6,1.47,0,2.69.2,3.66.6.97.38,1.68.95,2.15,1.71.49.76.73,1.67.73,2.75v7.67c0,.63.05,1.29.16,1.99.1.67.23,1.31.38,1.89h-3.76c-.21-.86-.34-1.71-.38-2.53l.19.19c-.44.78-1.13,1.44-2.05,1.99-.91.53-2.02.79-3.35.79ZM129.43,22.35c.8,0,1.51-.18,2.12-.54.61-.36,1.08-.85,1.42-1.48.34-.65.51-1.37.51-2.15v-2.31l.19.32c-.29.46-.68.81-1.17,1.04-.48.21-1.24.4-2.27.57-1.26.21-2.18.47-2.75.79-.57.32-.85.86-.85,1.64,0,.67.26,1.2.79,1.58.53.36,1.2.54,2.02.54ZM144.78,3.91v15.6c0,.86.16,1.51.47,1.93.32.42.86.63,1.64.63.42,0,.88-.05,1.39-.16v2.75c-.25.11-.6.18-1.04.22-.44.06-.89.09-1.36.09-.93,0-1.75-.16-2.46-.47s-1.29-.82-1.74-1.52c-.42-.72-.63-1.65-.63-2.81V3.91h3.73ZM147.97,11.62h-9.63v-2.94h9.63v2.94ZM149.98,8.68h3.76v16.14h-3.76V8.68ZM149.7,2.8h4.29v3.92h-4.29v-3.92ZM163.95,25.29c-1.56,0-2.97-.36-4.23-1.07-1.26-.74-2.25-1.76-2.97-3.06-.72-1.31-1.07-2.78-1.07-4.42s.36-3.08,1.07-4.39c.72-1.31,1.71-2.32,2.97-3.03,1.26-.74,2.67-1.11,4.23-1.11s2.94.37,4.2,1.11c1.26.72,2.25,1.73,2.97,3.03.72,1.31,1.07,2.77,1.07,4.39s-.36,3.12-1.07,4.42c-.72,1.31-1.71,2.33-2.97,3.06-1.26.72-2.66,1.07-4.2,1.07ZM163.95,22.23c.88,0,1.65-.21,2.31-.63.65-.42,1.16-1.04,1.52-1.86.38-.84.57-1.84.57-3s-.19-2.12-.57-2.94c-.36-.82-.86-1.44-1.52-1.86-.65-.44-1.42-.66-2.31-.66s-1.66.22-2.34.66c-.65.42-1.17,1.04-1.55,1.86-.36.82-.54,1.8-.54,2.94s.18,2.16.54,3c.38.82.9,1.44,1.55,1.86.67.42,1.45.63,2.34.63ZM174.09,8.68h3.7v2.65l-.16-.28c.46-.84,1.1-1.53,1.93-2.05.84-.53,1.85-.79,3.03-.79,1.1,0,2.04.23,2.84.69.82.44,1.44,1.11,1.86,1.99.44.86.66,1.92.66,3.16v10.77h-3.79v-10.45c0-.93-.22-1.66-.66-2.21-.42-.57-1.1-.85-2.02-.85-.63,0-1.22.16-1.77.47-.55.32-.99.82-1.33,1.52-.34.67-.51,1.52-.51,2.53v9h-3.79V8.68ZM189.86,23.33l13.74-19.68.25.47h-13.68v-1.42h14.78v1.48l-13.71,19.68-.25-.47h14.28v1.42h-15.41v-1.48ZM213.53,25.29c-1.45,0-2.75-.36-3.88-1.07-1.12-.74-2-1.75-2.65-3.03-.63-1.28-.95-2.74-.95-4.36s.31-3.07.95-4.36c.65-1.28,1.54-2.28,2.65-3,1.14-.74,2.43-1.11,3.88-1.11s2.72.37,3.85,1.11c1.14.72,2.02,1.72,2.65,3,.63,1.28.95,2.74.95,4.36s-.32,3.07-.95,4.36c-.63,1.28-1.52,2.3-2.65,3.03-1.14.72-2.42,1.07-3.85,1.07ZM213.53,24.03c1.16,0,2.18-.29,3.06-.88.9-.59,1.61-1.42,2.12-2.49.51-1.09.76-2.37.76-3.82s-.25-2.72-.76-3.79c-.5-1.09-1.21-1.94-2.12-2.53-.88-.59-1.9-.88-3.06-.88s-2.19.29-3.09.88c-.91.59-1.61,1.43-2.12,2.53-.51,1.07-.76,2.34-.76,3.79s.25,2.73.76,3.82c.51,1.07,1.21,1.91,2.12,2.49.9.59,1.94.88,3.09.88ZM230.37,25.29c-1.45,0-2.75-.36-3.88-1.07-1.12-.74-2-1.75-2.65-3.03-.63-1.28-.95-2.74-.95-4.36s.32-3.07.95-4.36c.65-1.28,1.54-2.28,2.65-3,1.14-.74,2.43-1.11,3.88-1.11s2.72.37,3.85,1.11c1.14.72,2.02,1.72,2.65,3,.63,1.28.95,2.74.95,4.36s-.32,3.07-.95,4.36c-.63,1.28-1.52,2.3-2.65,3.03-1.14.72-2.42,1.07-3.85,1.07ZM230.37,24.03c1.16,0,2.18-.29,3.06-.88.9-.59,1.61-1.42,2.12-2.49.51-1.09.76-2.37.76-3.82s-.25-2.72-.76-3.79c-.51-1.09-1.21-1.94-2.12-2.53-.88-.59-1.91-.88-3.06-.88s-2.19.29-3.09.88c-.91.59-1.61,1.43-2.12,2.53-.5,1.07-.76,2.34-.76,3.79s.25,2.73.76,3.82c.51,1.07,1.21,1.91,2.12,2.49.91.59,1.94.88,3.09.88ZM241.06,8.84h1.36v3.63l-.13-.25c.42-1.09,1.06-2.01,1.93-2.75.86-.74,1.96-1.11,3.29-1.11s2.32.38,3.1,1.14c.8.76,1.3,1.74,1.52,2.94l-.22.03c.38-1.28,1.05-2.28,2.02-3,.99-.74,2.08-1.11,3.28-1.11.99,0,1.87.2,2.65.6.78.4,1.39,1.02,1.83,1.86.44.82.66,1.85.66,3.1v10.9h-1.42v-10.49c0-1.54-.33-2.71-.98-3.51-.65-.8-1.61-1.2-2.87-1.2-1.39,0-2.52.52-3.38,1.55-.84,1.03-1.26,2.43-1.26,4.2v9.44h-1.45v-10.33c0-1.52-.33-2.71-.98-3.57-.63-.86-1.54-1.29-2.72-1.29-.84,0-1.63.23-2.37.69-.72.46-1.3,1.16-1.74,2.08-.44.91-.66,2.01-.66,3.32v9.1h-1.45v-15.98ZM272.89,25.29c-1.49,0-2.82-.35-3.98-1.04-1.14-.72-2.02-1.71-2.65-2.97-.61-1.28-.92-2.76-.92-4.42s.33-3.11.98-4.39c.67-1.31,1.57-2.32,2.68-3.03,1.14-.72,2.37-1.07,3.7-1.07,1.43,0,2.68.36,3.76,1.07,1.1.69,1.95,1.69,2.56,3,.61,1.28.93,2.8.95,4.55h-13.58v-1.26h12.6l-.41.6c-.04-2.02-.59-3.64-1.64-4.86s-2.46-1.83-4.23-1.83c-1.05,0-2.03.28-2.94.85-.88.57-1.59,1.37-2.12,2.4-.53,1.01-.79,2.17-.79,3.47v.63c0,1.41.25,2.65.76,3.73.51,1.05,1.21,1.87,2.12,2.46.93.57,2,.85,3.22.85,1.3,0,2.39-.28,3.25-.85.86-.57,1.48-1.33,1.86-2.27h1.58c-.46,1.31-1.27,2.37-2.43,3.19-1.14.8-2.58,1.2-4.33,1.2ZM283.09,8.84h1.39v4.42l-.13-.13c.32-1.14.79-2.07,1.42-2.81.63-.74,1.38-1.25,2.24-1.55.86-.32,1.8-.44,2.81-.38v1.48c-1.41-.11-2.55.06-3.41.51-.93.51-1.64,1.28-2.15,2.34-.48,1.03-.73,2.34-.73,3.92v8.18h-1.45v-15.98Z"></path>
  <g>
    <circle class="st0" cx="13.07" cy="14" r="13.07"></circle>
    <circle class="st1" cx="12.82" cy="13.93" r="2.48"></circle>
    <circle class="st1" cx="12.82" cy="6.35" r="1.6"></circle>
    <circle class="st1" cx="12.82" cy="21.47" r="1.6"></circle>
    <circle class="st1" cx="19.36" cy="10.13" r="1.6"></circle>
    <circle class="st1" cx="6.27" cy="17.69" r="1.6"></circle>
    <circle class="st1" cx="19.36" cy="17.69" r="1.6"></circle>
    <circle class="st1" cx="6.27" cy="10.13" r="1.6"></circle>
  </g>
</svg>