<?xml version="1.0"?>

<svg xmlns="http://www.w3.org/2000/svg" id="Layer_1" version="1.1" viewBox="0 0 198 28" width="198" height="28">
  
  <defs>
    
  </defs>
  <path class="st1" d="M53.33,25.53c-2.04,0-3.87-.47-5.5-1.42-1.62-.97-2.9-2.32-3.82-4.04s-1.39-3.68-1.39-5.87.49-4.33,1.48-6.1c1.01-1.79,2.38-3.17,4.11-4.14,1.75-.99,3.72-1.48,5.91-1.48,1.89,0,3.54.34,4.93,1.01,1.39.65,2.48,1.51,3.28,2.56.82,1.03,1.37,2.12,1.64,3.25h-4.07c-.46-1.03-1.16-1.86-2.08-2.5-.93-.63-2.18-.95-3.76-.95-1.39,0-2.63.33-3.73.98-1.09.65-1.96,1.61-2.59,2.87-.61,1.24-.92,2.73-.92,4.45s.29,3.07.88,4.3c.61,1.2,1.46,2.13,2.56,2.78,1.12.65,2.41.98,3.88.98,1.2,0,2.27-.25,3.22-.76.97-.51,1.73-1.25,2.27-2.24.57-1.01.86-2.24.88-3.7l.57.51h-8.18v-3.19h11.02v12.22h-3.66v-3.19l.19.28c-.63,1.05-1.56,1.88-2.78,2.49-1.2.59-2.65.88-4.36.88l.02.02ZM71.93,25.53c-1.07,0-2.02-.22-2.84-.66-.8-.46-1.42-1.14-1.86-2.02-.44-.88-.66-1.97-.66-3.25v-10.67h3.76v10.07c0,1.12.22,1.97.66,2.56.44.57,1.13.85,2.05.85.59,0,1.14-.16,1.64-.47.51-.32.92-.81,1.23-1.48.32-.69.47-1.56.47-2.59v-8.94h3.79v16.14h-3.7v-2.56l.19.22c-.44.93-1.06,1.63-1.86,2.12-.8.46-1.76.69-2.87.69h0ZM87.9,4.15v15.6c0,.86.16,1.51.47,1.93.32.42.86.63,1.64.63.42,0,.88-.05,1.39-.16v2.75c-.25.11-.6.18-1.04.22-.44.06-.89.09-1.36.09-.93,0-1.75-.16-2.46-.47-.72-.32-1.29-.82-1.74-1.52-.42-.72-.63-1.65-.63-2.81V4.15s3.73,0,3.73,0ZM91.09,11.85h-9.63v-2.94h9.63v2.94ZM93.69,23.57l13.74-19.68.25.47h-13.68v-1.42h14.78v1.48l-13.71,19.68-.25-.47h14.28v1.42h-15.41v-1.48ZM117.35,25.53c-1.45,0-2.75-.36-3.88-1.07-1.12-.74-2-1.75-2.65-3.03-.63-1.28-.95-2.74-.95-4.36s.32-3.07.95-4.36c.65-1.28,1.54-2.28,2.65-3,1.14-.74,2.43-1.11,3.88-1.11s2.72.37,3.85,1.11c1.14.72,2.02,1.72,2.65,3,.63,1.28.95,2.74.95,4.36s-.32,3.07-.95,4.36c-.63,1.28-1.52,2.3-2.65,3.03-1.14.72-2.42,1.07-3.85,1.07ZM117.35,24.26c1.16,0,2.18-.29,3.06-.88.91-.59,1.61-1.42,2.12-2.49.51-1.09.76-2.37.76-3.82s-.25-2.72-.76-3.79c-.5-1.09-1.21-1.94-2.12-2.53-.88-.59-1.9-.88-3.06-.88s-2.19.29-3.1.88c-.9.59-1.61,1.43-2.12,2.53-.5,1.07-.76,2.34-.76,3.79s.25,2.73.76,3.82c.5,1.07,1.21,1.91,2.12,2.49.91.59,1.94.88,3.1.88ZM134.2,25.53c-1.45,0-2.75-.36-3.89-1.07-1.12-.74-2-1.75-2.65-3.03-.63-1.28-.95-2.74-.95-4.36s.32-3.07.95-4.36c.65-1.28,1.54-2.28,2.65-3,1.14-.74,2.43-1.11,3.89-1.11s2.72.37,3.85,1.11c1.14.72,2.02,1.72,2.65,3,.63,1.28.95,2.74.95,4.36s-.32,3.07-.95,4.36c-.63,1.28-1.52,2.3-2.65,3.03-1.14.72-2.42,1.07-3.85,1.07ZM134.2,24.26c1.16,0,2.18-.29,3.06-.88.91-.59,1.61-1.42,2.12-2.49.51-1.09.76-2.37.76-3.82s-.25-2.72-.76-3.79c-.51-1.09-1.21-1.94-2.12-2.53-.88-.59-1.9-.88-3.06-.88s-2.19.29-3.1.88-1.61,1.43-2.12,2.53c-.51,1.07-.76,2.34-.76,3.79s.25,2.73.76,3.82c.5,1.07,1.21,1.91,2.12,2.49.9.59,1.94.88,3.1.88ZM144.89,9.07h1.36v3.63l-.13-.25c.42-1.09,1.06-2.01,1.93-2.75.86-.74,1.96-1.11,3.28-1.11s2.32.38,3.1,1.14c.8.76,1.31,1.74,1.52,2.94l-.22.03c.38-1.28,1.05-2.28,2.02-3,.99-.74,2.08-1.11,3.28-1.11.99,0,1.87.2,2.65.6.78.4,1.39,1.02,1.83,1.86.44.82.66,1.85.66,3.1v10.9h-1.42v-10.49c0-1.54-.33-2.71-.98-3.51s-1.61-1.2-2.87-1.2c-1.39,0-2.52.52-3.38,1.55-.84,1.03-1.26,2.43-1.26,4.2v9.44h-1.45v-10.33c0-1.52-.33-2.71-.98-3.57-.63-.86-1.54-1.29-2.72-1.29-.84,0-1.63.23-2.37.69-.72.46-1.29,1.16-1.74,2.08-.44.91-.66,2.01-.66,3.32v9.1h-1.45v-15.98h0ZM176.72,25.53c-1.49,0-2.82-.35-3.98-1.04-1.14-.72-2.02-1.71-2.65-2.97-.61-1.28-.92-2.76-.92-4.42s.33-3.11.98-4.39c.67-1.31,1.57-2.32,2.68-3.03,1.14-.72,2.37-1.07,3.69-1.07,1.43,0,2.69.36,3.76,1.07,1.1.69,1.95,1.69,2.56,3,.61,1.28.93,2.8.95,4.55h-13.58v-1.26h12.6l-.41.6c-.04-2.02-.59-3.64-1.64-4.86s-2.46-1.83-4.23-1.83c-1.05,0-2.03.28-2.94.85-.88.57-1.59,1.37-2.12,2.4-.53,1.01-.79,2.17-.79,3.47v.63c0,1.41.25,2.65.76,3.73.51,1.05,1.21,1.87,2.12,2.46.93.57,2,.85,3.22.85,1.31,0,2.39-.28,3.25-.85s1.48-1.33,1.86-2.27h1.58c-.46,1.31-1.27,2.37-2.43,3.19-1.14.8-2.58,1.2-4.33,1.2h0ZM186.91,9.07h1.39v4.42l-.13-.13c.32-1.14.79-2.07,1.42-2.81.63-.74,1.38-1.25,2.24-1.55.86-.32,1.8-.44,2.81-.38v1.48c-1.41-.11-2.55.06-3.41.51-.93.51-1.64,1.28-2.15,2.34-.48,1.03-.73,2.34-.73,3.92v8.18h-1.45v-15.98h0Z"></path>
  <g>
    <circle class="st0" cx="13.07" cy="14" r="13.07"></circle>
    <circle class="st2" cx="13.01" cy="14.14" r="2.13"></circle>
    <path class="st2" d="M6.79,21.57l-1.65-.44.22-.82c.45-1.67,1.11-4.77,1.11-6.45s-.74-4.49-1.23-5.98l-.27-.81,1.62-.54.27.81c.05.16,1.32,3.99,1.32,6.52s-1.12,6.71-1.16,6.89l-.22.82h0Z"></path>
    <path class="st2" d="M19.28,21.6l-.27-.81c-.05-.16-1.32-4-1.32-6.52s1.12-6.71,1.16-6.89l.22-.82,1.65.44-.22.82c-.45,1.67-1.11,4.77-1.11,6.45s.74,4.49,1.23,5.98l.27.81-1.62.54h.01Z"></path>
  </g>
</svg>