<?xml version="1.0"?>

<svg xmlns="http://www.w3.org/2000/svg" id="Layer_1" version="1.1" viewBox="0 0 274 28" width="274" height="28">
  
  <defs>
    
  </defs>
  <path class="st1" d="M62.37,2.71v22.11h-3.98V2.71h3.98ZM44.78,24.82V2.71h3.95v22.11h-3.95ZM48.22,15.34v-3.41h10.67v3.41h-10.67ZM72.64,25.29c-1.56,0-2.97-.36-4.23-1.07-1.26-.74-2.25-1.76-2.97-3.06-.72-1.31-1.07-2.78-1.07-4.42s.36-3.08,1.07-4.39c.72-1.31,1.71-2.32,2.97-3.03,1.26-.74,2.67-1.11,4.23-1.11s2.94.37,4.2,1.11c1.26.72,2.25,1.73,2.97,3.03.72,1.31,1.07,2.77,1.07,4.39s-.36,3.12-1.07,4.42c-.72,1.31-1.71,2.33-2.97,3.06-1.26.72-2.66,1.07-4.2,1.07ZM72.64,22.23c.88,0,1.65-.21,2.31-.63.65-.42,1.16-1.04,1.52-1.86.38-.84.57-1.84.57-3s-.19-2.12-.57-2.94c-.36-.82-.86-1.44-1.52-1.86-.65-.44-1.42-.66-2.31-.66s-1.66.22-2.34.66c-.65.42-1.17,1.04-1.55,1.86-.36.82-.54,1.8-.54,2.94s.18,2.16.54,3c.38.82.89,1.44,1.55,1.86.67.42,1.45.63,2.34.63ZM82.78,8.68h3.73v3.88l-.16-.13c.34-1.07.77-1.92,1.29-2.53.53-.63,1.17-1.08,1.93-1.36.76-.27,1.64-.38,2.65-.32v3.6c-1.22-.11-2.18-.03-2.87.22-.95.34-1.65.97-2.12,1.89-.44.93-.66,2.12-.66,3.57v7.3h-3.79s0-16.12,0-16.12ZM93.58,8.68h3.66v2.5l-.16-.22c.4-.88,1.01-1.56,1.83-2.02.82-.48,1.75-.73,2.78-.73s1.94.26,2.72.79c.8.53,1.38,1.26,1.74,2.21l-.32-.03c.44-.91,1.12-1.62,2.02-2.15.91-.55,1.94-.82,3.1-.82,1.09,0,2.06.23,2.9.69.84.44,1.5,1.09,1.96,1.96.46.86.69,1.89.69,3.1v10.86h-3.79v-10.33c0-1.01-.21-1.78-.63-2.31-.42-.55-1.05-.82-1.89-.82-1.01,0-1.81.36-2.4,1.07-.57.72-.85,1.75-.85,3.1v9.29h-3.79v-10.23c0-1.03-.22-1.82-.66-2.37-.42-.57-1.04-.85-1.86-.85-.67,0-1.25.16-1.74.47-.48.32-.86.79-1.14,1.42-.25.63-.38,1.39-.38,2.27v9.29h-3.79V8.68ZM126.55,25.29c-1.56,0-2.97-.36-4.23-1.07-1.26-.74-2.25-1.76-2.97-3.06-.72-1.31-1.07-2.78-1.07-4.42s.36-3.08,1.07-4.39c.72-1.31,1.71-2.32,2.97-3.03,1.26-.74,2.67-1.11,4.23-1.11s2.94.37,4.2,1.11c1.26.72,2.25,1.73,2.97,3.03.72,1.31,1.07,2.77,1.07,4.39s-.36,3.12-1.07,4.42c-.71,1.31-1.71,2.33-2.97,3.06-1.26.72-2.66,1.07-4.2,1.07ZM126.55,22.23c.89,0,1.65-.21,2.31-.63.65-.42,1.16-1.04,1.52-1.86.38-.84.57-1.84.57-3s-.19-2.12-.57-2.94c-.36-.82-.86-1.44-1.52-1.86-.65-.44-1.42-.66-2.31-.66s-1.66.22-2.34.66c-.65.42-1.17,1.04-1.55,1.86-.36.82-.54,1.8-.54,2.94s.18,2.16.54,3c.38.82.89,1.44,1.55,1.86.67.42,1.45.63,2.34.63ZM136.69,8.68h3.7v2.65l-.16-.28c.46-.84,1.1-1.53,1.93-2.05.84-.53,1.85-.79,3.03-.79,1.09,0,2.04.23,2.84.69.82.44,1.44,1.11,1.86,1.99.44.86.66,1.92.66,3.16v10.77h-3.79v-10.45c0-.93-.22-1.66-.66-2.21-.42-.57-1.1-.85-2.02-.85-.63,0-1.22.16-1.77.47-.55.32-.99.82-1.33,1.52-.34.67-.5,1.52-.5,2.53v9h-3.79V8.68h0ZM160.68,25.29c-1.71,0-3.19-.35-4.45-1.04-1.26-.72-2.23-1.72-2.91-3-.67-1.28-1.01-2.78-1.01-4.48s.36-3.12,1.07-4.42c.74-1.31,1.73-2.32,2.97-3.03,1.24-.74,2.6-1.11,4.07-1.11,1.6,0,3,.38,4.2,1.14,1.22.76,2.17,1.86,2.84,3.32.69,1.43,1.05,3.16,1.07,5.18h-14.09v-2.78h11.72l-1.33,1.2c0-1.52-.38-2.74-1.14-3.66-.76-.93-1.82-1.39-3.19-1.39-.82,0-1.57.21-2.24.63-.65.4-1.17.97-1.55,1.71-.38.72-.57,1.51-.57,2.37v1.48c0,.95.19,1.8.57,2.56.4.74.95,1.32,1.64,1.74.7.42,1.49.63,2.37.63s1.55-.16,2.12-.47c.57-.32.98-.74,1.23-1.26h4.01c-.44,1.43-1.32,2.58-2.62,3.44-1.29.84-2.89,1.26-4.8,1.26l.02-.02ZM169.44,23.33l13.74-19.68.25.47h-13.68v-1.42h14.78v1.48l-13.71,19.68-.25-.47h14.28v1.42h-15.41v-1.48h0ZM193.1,25.29c-1.45,0-2.75-.36-3.88-1.07-1.12-.74-2-1.75-2.65-3.03-.63-1.28-.95-2.74-.95-4.36s.32-3.07.95-4.36c.65-1.28,1.54-2.28,2.65-3,1.14-.74,2.43-1.11,3.88-1.11s2.72.37,3.85,1.11c1.14.72,2.02,1.72,2.65,3,.63,1.28.95,2.74.95,4.36s-.32,3.07-.95,4.36c-.63,1.28-1.52,2.3-2.65,3.03-1.14.72-2.42,1.07-3.85,1.07ZM193.1,24.03c1.16,0,2.18-.29,3.06-.88.9-.59,1.61-1.42,2.12-2.49.5-1.09.76-2.37.76-3.82s-.25-2.72-.76-3.79c-.51-1.09-1.21-1.94-2.12-2.53-.88-.59-1.91-.88-3.06-.88s-2.19.29-3.1.88c-.9.59-1.61,1.43-2.12,2.53-.51,1.07-.76,2.34-.76,3.79s.25,2.73.76,3.82c.51,1.07,1.21,1.91,2.12,2.49.9.59,1.94.88,3.1.88ZM209.95,25.29c-1.45,0-2.75-.36-3.89-1.07-1.12-.74-2-1.75-2.65-3.03-.63-1.28-.95-2.74-.95-4.36s.32-3.07.95-4.36c.65-1.28,1.54-2.28,2.65-3,1.14-.74,2.43-1.11,3.89-1.11s2.72.37,3.85,1.11c1.14.72,2.02,1.72,2.65,3,.63,1.28.95,2.74.95,4.36s-.31,3.07-.95,4.36c-.63,1.28-1.52,2.3-2.65,3.03-1.14.72-2.42,1.07-3.85,1.07ZM209.95,24.03c1.16,0,2.18-.29,3.06-.88.91-.59,1.61-1.42,2.12-2.49.51-1.09.76-2.37.76-3.82s-.25-2.72-.76-3.79c-.51-1.09-1.21-1.94-2.12-2.53-.88-.59-1.9-.88-3.06-.88s-2.19.29-3.1.88-1.61,1.43-2.12,2.53c-.51,1.07-.76,2.34-.76,3.79s.25,2.73.76,3.82c.51,1.07,1.21,1.91,2.12,2.49.9.59,1.94.88,3.1.88ZM220.64,8.84h1.36v3.63l-.13-.25c.42-1.09,1.06-2.01,1.93-2.75.86-.74,1.96-1.11,3.28-1.11s2.32.38,3.1,1.14c.8.76,1.31,1.74,1.52,2.94l-.22.03c.38-1.28,1.05-2.28,2.02-3,.99-.74,2.08-1.11,3.28-1.11.99,0,1.87.2,2.65.6.78.4,1.39,1.02,1.83,1.86.44.82.66,1.85.66,3.1v10.9h-1.42v-10.49c0-1.54-.33-2.71-.98-3.51s-1.61-1.2-2.87-1.2c-1.39,0-2.52.52-3.38,1.55-.84,1.03-1.26,2.43-1.26,4.2v9.44h-1.45v-10.33c0-1.52-.33-2.71-.98-3.57-.63-.86-1.54-1.29-2.72-1.29-.84,0-1.63.23-2.37.69-.72.46-1.29,1.16-1.74,2.08-.44.91-.66,2.01-.66,3.32v9.1h-1.45v-15.98h0ZM252.46,25.29c-1.49,0-2.82-.35-3.98-1.04-1.14-.72-2.02-1.71-2.65-2.97-.61-1.28-.92-2.76-.92-4.42s.33-3.11.98-4.39c.67-1.31,1.57-2.32,2.68-3.03,1.14-.72,2.37-1.07,3.7-1.07,1.43,0,2.68.36,3.76,1.07,1.1.69,1.95,1.69,2.56,3,.61,1.28.93,2.8.95,4.55h-13.58v-1.26h12.6l-.41.6c-.04-2.02-.59-3.64-1.64-4.86-1.05-1.22-2.46-1.83-4.23-1.83-1.05,0-2.03.28-2.94.85-.88.57-1.59,1.37-2.12,2.4-.53,1.01-.79,2.17-.79,3.47v.63c0,1.41.25,2.65.76,3.73.51,1.05,1.21,1.87,2.12,2.46.93.57,2,.85,3.22.85,1.31,0,2.39-.28,3.25-.85s1.48-1.33,1.86-2.27h1.58c-.46,1.31-1.27,2.37-2.43,3.19-1.14.8-2.58,1.2-4.33,1.2h0ZM262.66,8.84h1.39v4.42l-.13-.13c.32-1.14.79-2.07,1.42-2.81.63-.74,1.38-1.25,2.24-1.55.86-.32,1.8-.44,2.81-.38v1.48c-1.41-.11-2.55.06-3.41.51-.93.51-1.64,1.28-2.15,2.34-.48,1.03-.73,2.34-.73,3.92v8.18h-1.45v-15.98h.01Z"></path>
  <g>
    <circle class="st0" cx="13.07" cy="14" r="13.07"></circle>
    <path class="st2" d="M13.22,22.77c-5.06,0-9.18-4.12-9.18-9.18,0-2.48.97-4.8,2.74-6.54l.67-.65,1.31,1.33-.67.65c-1.41,1.39-2.19,3.24-2.19,5.21,0,4.03,3.28,7.31,7.31,7.31s7.31-3.28,7.31-7.31c0-1.99-.79-3.86-2.22-5.25l-.67-.65,1.3-1.34.67.65c1.8,1.74,2.79,4.08,2.79,6.59,0,5.06-4.12,9.18-9.18,9.18h.01Z"></path>
    <circle class="st2" cx="13.22" cy="13.37" r="2.55"></circle>
    <circle class="st2" cx="13.22" cy="6.99" r="1.58"></circle>
  </g>
</svg>