<?xml version="1.0"?>

<svg xmlns="http://www.w3.org/2000/svg" id="Layer_1" version="1.1" viewBox="0 0 256 28" width="256" height="28">
  
  <defs>
    
  </defs>
  <path class="st1" d="M43.89,2.71h5.18l10.2,18.25-.63.32c-.06-1.83-.09-4.68-.09-8.56V2.71h3.92v22.11h-5.21l-10.2-18.25.57-.32c.13,2.78.19,5.58.19,8.4v10.17h-3.92V2.71ZM70.82,25.29c-1.07,0-2.02-.22-2.84-.66-.8-.46-1.42-1.14-1.86-2.02-.44-.88-.66-1.97-.66-3.25v-10.67h3.76v10.07c0,1.12.22,1.97.66,2.56.44.57,1.13.85,2.05.85.59,0,1.14-.16,1.64-.47.51-.32.92-.81,1.23-1.48.32-.69.47-1.56.47-2.59v-8.94h3.79v16.14h-3.7v-2.56l.19.22c-.44.93-1.06,1.63-1.86,2.12-.8.46-1.76.69-2.87.69ZM86.79,3.91v15.6c0,.86.16,1.51.47,1.93.32.42.86.63,1.64.63.42,0,.88-.05,1.39-.16v2.75c-.25.11-.6.18-1.04.22-.44.06-.89.09-1.36.09-.93,0-1.75-.16-2.46-.47-.72-.32-1.29-.82-1.74-1.52-.42-.72-.63-1.65-.63-2.81V3.91h3.73ZM89.98,11.62h-9.63v-2.94h9.63v2.94ZM91.99,8.68h3.73v3.88l-.16-.13c.34-1.07.77-1.92,1.29-2.53.53-.63,1.17-1.08,1.93-1.36.76-.27,1.64-.38,2.65-.32v3.6c-1.22-.11-2.18-.03-2.87.22-.95.34-1.65.97-2.12,1.89-.44.93-.66,2.12-.66,3.57v7.3h-3.79V8.68ZM102.79,8.68h3.76v16.14h-3.76V8.68ZM102.51,2.8h4.29v3.92h-4.29v-3.92ZM116.85,25.29c-1.71,0-3.19-.35-4.45-1.04-1.26-.72-2.23-1.72-2.91-3-.67-1.28-1.01-2.78-1.01-4.48s.36-3.12,1.07-4.42c.74-1.31,1.73-2.32,2.97-3.03,1.24-.74,2.6-1.11,4.07-1.11,1.6,0,3,.38,4.2,1.14,1.22.76,2.17,1.86,2.84,3.32.69,1.43,1.05,3.16,1.07,5.18h-14.09v-2.78h11.72l-1.33,1.2c0-1.52-.38-2.74-1.14-3.66-.76-.93-1.82-1.39-3.19-1.39-.82,0-1.57.21-2.24.63-.65.4-1.17.97-1.55,1.71-.38.72-.57,1.51-.57,2.37v1.48c0,.95.19,1.8.57,2.56.4.74.95,1.32,1.64,1.74.69.42,1.49.63,2.37.63s1.55-.16,2.12-.47c.57-.32.98-.74,1.23-1.26h4.01c-.44,1.43-1.32,2.58-2.62,3.44-1.28.84-2.88,1.26-4.8,1.26ZM126.53,8.68h3.69v2.65l-.16-.28c.46-.84,1.11-1.53,1.93-2.05.84-.53,1.85-.79,3.03-.79,1.1,0,2.04.23,2.84.69.82.44,1.44,1.11,1.86,1.99.44.86.66,1.92.66,3.16v10.77h-3.79v-10.45c0-.93-.22-1.66-.66-2.21-.42-.57-1.1-.85-2.02-.85-.63,0-1.22.16-1.77.47-.55.32-.99.82-1.33,1.52-.34.67-.51,1.52-.51,2.53v9h-3.79V8.68ZM147.93,3.91v15.6c0,.86.16,1.51.47,1.93.32.42.86.63,1.64.63.42,0,.88-.05,1.39-.16v2.75c-.25.11-.6.18-1.04.22-.44.06-.9.09-1.36.09-.93,0-1.75-.16-2.46-.47s-1.29-.82-1.74-1.52c-.42-.72-.63-1.65-.63-2.81V3.91h3.73ZM151.12,11.62h-9.63v-2.94h9.63v2.94ZM152.21,23.33l13.74-19.68.25.47h-13.68v-1.42h14.78v1.48l-13.71,19.68-.25-.47h14.27v1.42h-15.41v-1.48ZM175.88,25.29c-1.45,0-2.75-.36-3.89-1.07-1.12-.74-2-1.75-2.65-3.03-.63-1.28-.95-2.74-.95-4.36s.32-3.07.95-4.36c.65-1.28,1.54-2.28,2.65-3,1.14-.74,2.43-1.11,3.89-1.11s2.72.37,3.85,1.11c1.14.72,2.02,1.72,2.65,3,.63,1.28.95,2.74.95,4.36s-.31,3.07-.95,4.36c-.63,1.28-1.52,2.3-2.65,3.03-1.14.72-2.42,1.07-3.85,1.07ZM175.88,24.03c1.16,0,2.18-.29,3.06-.88.91-.59,1.61-1.42,2.12-2.49.51-1.09.76-2.37.76-3.82s-.25-2.72-.76-3.79c-.5-1.09-1.21-1.94-2.12-2.53-.88-.59-1.9-.88-3.06-.88s-2.19.29-3.1.88c-.91.59-1.61,1.43-2.12,2.53-.51,1.07-.76,2.34-.76,3.79s.25,2.73.76,3.82c.51,1.07,1.21,1.91,2.12,2.49.9.59,1.94.88,3.1.88ZM192.72,25.29c-1.45,0-2.75-.36-3.88-1.07-1.12-.74-2-1.75-2.65-3.03-.63-1.28-.95-2.74-.95-4.36s.32-3.07.95-4.36c.65-1.28,1.54-2.28,2.65-3,1.14-.74,2.43-1.11,3.88-1.11s2.72.37,3.85,1.11c1.14.72,2.02,1.72,2.65,3,.63,1.28.95,2.74.95,4.36s-.32,3.07-.95,4.36c-.63,1.28-1.52,2.3-2.65,3.03-1.14.72-2.42,1.07-3.85,1.07ZM192.72,24.03c1.16,0,2.18-.29,3.06-.88.91-.59,1.61-1.42,2.12-2.49.51-1.09.76-2.37.76-3.82s-.25-2.72-.76-3.79c-.51-1.09-1.21-1.94-2.12-2.53-.88-.59-1.9-.88-3.06-.88s-2.19.29-3.1.88c-.91.59-1.61,1.43-2.12,2.53-.51,1.07-.76,2.34-.76,3.79s.25,2.73.76,3.82c.51,1.07,1.21,1.91,2.12,2.49.9.59,1.94.88,3.1.88ZM203.41,8.84h1.36v3.63l-.13-.25c.42-1.09,1.06-2.01,1.93-2.75.86-.74,1.96-1.11,3.29-1.11s2.32.38,3.1,1.14c.8.76,1.3,1.74,1.52,2.94l-.22.03c.38-1.28,1.05-2.28,2.02-3,.99-.74,2.09-1.11,3.29-1.11.99,0,1.87.2,2.65.6.78.4,1.39,1.02,1.83,1.86.44.82.66,1.85.66,3.1v10.9h-1.42v-10.49c0-1.54-.33-2.71-.98-3.51-.65-.8-1.61-1.2-2.87-1.2-1.39,0-2.52.52-3.38,1.55-.84,1.03-1.26,2.43-1.26,4.2v9.44h-1.45v-10.33c0-1.52-.33-2.71-.98-3.57-.63-.86-1.54-1.29-2.72-1.29-.84,0-1.63.23-2.37.69-.72.46-1.3,1.16-1.74,2.08-.44.91-.66,2.01-.66,3.32v9.1h-1.45v-15.98ZM235.24,25.29c-1.5,0-2.82-.35-3.98-1.04-1.14-.72-2.02-1.71-2.65-2.97-.61-1.28-.92-2.76-.92-4.42s.33-3.11.98-4.39c.67-1.31,1.57-2.32,2.68-3.03,1.14-.72,2.37-1.07,3.7-1.07,1.43,0,2.68.36,3.76,1.07,1.1.69,1.95,1.69,2.56,3,.61,1.28.93,2.8.95,4.55h-13.58v-1.26h12.6l-.41.6c-.04-2.02-.59-3.64-1.64-4.86-1.05-1.22-2.46-1.83-4.23-1.83-1.05,0-2.03.28-2.94.85-.88.57-1.59,1.37-2.12,2.4-.53,1.01-.79,2.17-.79,3.47v.63c0,1.41.25,2.65.76,3.73.51,1.05,1.21,1.87,2.12,2.46.93.57,2,.85,3.22.85,1.31,0,2.39-.28,3.25-.85.86-.57,1.48-1.33,1.86-2.27h1.58c-.46,1.31-1.27,2.37-2.43,3.19-1.14.8-2.58,1.2-4.33,1.2ZM245.44,8.84h1.39v4.42l-.13-.13c.32-1.14.79-2.07,1.42-2.81.63-.74,1.38-1.25,2.24-1.55.86-.32,1.8-.44,2.81-.38v1.48c-1.41-.11-2.55.06-3.41.51-.93.51-1.64,1.28-2.15,2.34-.48,1.03-.73,2.34-.73,3.92v8.18h-1.45v-15.98Z"></path>
  <g>
    <circle class="st0" cx="13.07" cy="14" r="13.07"></circle>
    <circle class="st1" cx="12.8" cy="14.09" r="2.13"></circle>
    <rect class="st1" x="15.14" y="8.38" width="4.77" height="1.91"></rect>
    <rect class="st1" x="5.6" y="18.06" width="4.77" height="1.91"></rect>
    <rect class="st1" x="16.85" y="16.7" width="1.91" height="4.77"></rect>
    <rect class="st1" x="6.96" y="6.95" width="1.91" height="4.77"></rect>
    <rect class="st1" x="10.3" y="6.44" width="4.77" height="1.91" transform="translate(-1.51 11.13) rotate(-45)"></rect>
    <rect class="st1" x="10.4" y="20.03" width="4.77" height="1.91" transform="translate(-11.09 15.18) rotate(-45)"></rect>
    <rect class="st1" x="18.82" y="11.71" width="1.91" height="4.77" transform="translate(-4.17 18.11) rotate(-45)"></rect>
    <rect class="st1" x="4.93" y="11.8" width="1.91" height="4.77" transform="translate(-8.31 8.32) rotate(-45)"></rect>
  </g>
</svg>