<?xml version="1.0"?>

<svg xmlns="http://www.w3.org/2000/svg" id="Layer_1" version="1.1" viewBox="0 0 216 28" width="216" height="28">
  
  <defs>
    
  </defs>
  <path class="st1" d="M47.87,5.65l.57.57h-6.54v-3.51h15.89v3.51h-6.54l.57-.57v19.17h-3.95s0-19.17,0-19.17ZM63.8,25.29c-1.56,0-2.97-.36-4.23-1.07-1.26-.74-2.25-1.76-2.97-3.06-.72-1.31-1.07-2.78-1.07-4.42s.36-3.08,1.07-4.39c.72-1.31,1.71-2.32,2.97-3.03,1.26-.74,2.67-1.11,4.23-1.11s2.94.37,4.2,1.11c1.26.72,2.25,1.73,2.97,3.03.72,1.31,1.07,2.77,1.07,4.39s-.36,3.12-1.07,4.42c-.72,1.31-1.71,2.33-2.97,3.06-1.26.72-2.66,1.07-4.2,1.07ZM63.8,22.23c.88,0,1.65-.21,2.31-.63.65-.42,1.16-1.04,1.52-1.86.38-.84.57-1.84.57-3s-.19-2.12-.57-2.94c-.36-.82-.86-1.44-1.52-1.86-.65-.44-1.42-.66-2.31-.66s-1.66.22-2.34.66c-.65.42-1.17,1.04-1.55,1.86-.36.82-.54,1.8-.54,2.94s.18,2.16.54,3c.38.82.89,1.44,1.55,1.86.67.42,1.45.63,2.34.63ZM77.27,16.23v.95l-5.84-8.5h4.33l1.67,2.4c.21.32.4.6.57.85.17.23.37.52.6.85l.79,1.23h.03c.27-.4.55-.8.82-1.2.23-.34.42-.62.57-.85.17-.25.36-.55.57-.88l1.61-2.4h4.2l-5.81,8.37v-.95l5.97,8.72h-4.3l-1.93-2.84c-.25-.38-.52-.76-.79-1.14-.17-.29-.52-.83-1.04-1.61h-.03c-.32.53-.66,1.05-1.04,1.58-.25.36-.51.73-.76,1.11l-1.99,2.91h-4.2l6-8.59h0ZM88.32,8.68h3.76v16.14h-3.76V8.68ZM88.04,2.8h4.3v3.92h-4.3v-3.92ZM95.08,8.68h3.7v2.65l-.16-.28c.46-.84,1.11-1.53,1.93-2.05.84-.53,1.85-.79,3.03-.79,1.09,0,2.04.23,2.84.69.82.44,1.44,1.11,1.86,1.99.44.86.66,1.92.66,3.16v10.77h-3.79v-10.45c0-.93-.22-1.66-.66-2.21-.42-.57-1.1-.85-2.02-.85-.63,0-1.22.16-1.77.47-.55.32-.99.82-1.33,1.52-.34.67-.51,1.52-.51,2.53v9h-3.79V8.68h.01ZM110.86,23.33l13.74-19.68.25.47h-13.67v-1.42h14.78v1.48l-13.71,19.68-.25-.47h14.28v1.42h-15.41v-1.48h0ZM134.52,25.29c-1.45,0-2.75-.36-3.88-1.07-1.12-.74-2-1.75-2.65-3.03-.63-1.28-.95-2.74-.95-4.36s.32-3.07.95-4.36c.65-1.28,1.54-2.28,2.65-3,1.14-.74,2.43-1.11,3.88-1.11s2.72.37,3.85,1.11c1.14.72,2.02,1.72,2.65,3,.63,1.28.95,2.74.95,4.36s-.32,3.07-.95,4.36c-.63,1.28-1.52,2.3-2.65,3.03-1.14.72-2.42,1.07-3.85,1.07ZM134.52,24.03c1.16,0,2.18-.29,3.06-.88.9-.59,1.61-1.42,2.12-2.49.5-1.09.76-2.37.76-3.82s-.25-2.72-.76-3.79c-.51-1.09-1.21-1.94-2.12-2.53-.89-.59-1.91-.88-3.06-.88s-2.19.29-3.1.88c-.9.59-1.61,1.43-2.12,2.53-.5,1.07-.76,2.34-.76,3.79s.25,2.73.76,3.82c.51,1.07,1.21,1.91,2.12,2.49.91.59,1.94.88,3.1.88ZM151.37,25.29c-1.45,0-2.75-.36-3.88-1.07-1.12-.74-2-1.75-2.65-3.03-.63-1.28-.95-2.74-.95-4.36s.32-3.07.95-4.36c.65-1.28,1.54-2.28,2.65-3,1.14-.74,2.43-1.11,3.88-1.11s2.72.37,3.85,1.11c1.14.72,2.02,1.72,2.65,3,.63,1.28.95,2.74.95,4.36s-.32,3.07-.95,4.36c-.63,1.28-1.52,2.3-2.65,3.03-1.14.72-2.42,1.07-3.85,1.07ZM151.37,24.03c1.16,0,2.18-.29,3.06-.88.9-.59,1.61-1.42,2.12-2.49.51-1.09.76-2.37.76-3.82s-.25-2.72-.76-3.79c-.51-1.09-1.21-1.94-2.12-2.53-.88-.59-1.91-.88-3.06-.88s-2.19.29-3.1.88c-.9.59-1.61,1.43-2.12,2.53-.51,1.07-.76,2.34-.76,3.79s.25,2.73.76,3.82c.5,1.07,1.21,1.91,2.12,2.49.9.59,1.94.88,3.1.88ZM162.06,8.84h1.36v3.63l-.13-.25c.42-1.09,1.06-2.01,1.93-2.75.86-.74,1.96-1.11,3.28-1.11s2.32.38,3.1,1.14c.8.76,1.31,1.74,1.52,2.94l-.22.03c.38-1.28,1.05-2.28,2.02-3,.99-.74,2.08-1.11,3.28-1.11.99,0,1.87.2,2.65.6.78.4,1.39,1.02,1.83,1.86.44.82.66,1.85.66,3.1v10.9h-1.42v-10.49c0-1.54-.33-2.71-.98-3.51s-1.61-1.2-2.87-1.2c-1.39,0-2.52.52-3.38,1.55-.84,1.03-1.26,2.43-1.26,4.2v9.44h-1.45v-10.33c0-1.52-.33-2.71-.98-3.57-.63-.86-1.54-1.29-2.72-1.29-.84,0-1.63.23-2.37.69-.72.46-1.29,1.16-1.74,2.08-.44.91-.66,2.01-.66,3.32v9.1h-1.45v-15.98h0ZM193.89,25.29c-1.5,0-2.82-.35-3.98-1.04-1.14-.72-2.02-1.71-2.65-2.97-.61-1.28-.92-2.76-.92-4.42s.33-3.11.98-4.39c.67-1.31,1.57-2.32,2.68-3.03,1.14-.72,2.37-1.07,3.69-1.07,1.43,0,2.68.36,3.76,1.07,1.1.69,1.95,1.69,2.56,3,.61,1.28.93,2.8.95,4.55h-13.58v-1.26h12.6l-.41.6c-.04-2.02-.59-3.64-1.64-4.86s-2.46-1.83-4.23-1.83c-1.05,0-2.03.28-2.94.85-.88.57-1.59,1.37-2.12,2.4-.53,1.01-.79,2.17-.79,3.47v.63c0,1.41.25,2.65.76,3.73.5,1.05,1.21,1.87,2.12,2.46.93.57,2,.85,3.22.85,1.31,0,2.39-.28,3.25-.85s1.49-1.33,1.86-2.27h1.58c-.46,1.31-1.27,2.37-2.43,3.19-1.14.8-2.58,1.2-4.33,1.2h0ZM204.08,8.84h1.39v4.42l-.13-.13c.32-1.14.79-2.07,1.42-2.81.63-.74,1.38-1.25,2.24-1.55.86-.32,1.8-.44,2.81-.38v1.48c-1.41-.11-2.55.06-3.41.51-.93.51-1.64,1.28-2.15,2.34-.48,1.03-.73,2.34-.73,3.92v8.18h-1.45v-15.98h0Z"></path>
  <circle class="st0" cx="13.07" cy="13.77" r="13.07"></circle>
  <circle class="st2" cx="12.77" cy="13.84" r="2.18"></circle>
  <path class="st2" d="M12.66,8.53c-2.17,0-3.6-1.15-4.11-1.83l1.35-1c.24.32,1.19,1.15,2.76,1.15,1.65,0,2.91-.82,3.25-1.14l1.13,1.24c-.64.59-2.29,1.58-4.39,1.58h.01Z"></path>
  <path class="st2" d="M15.77,22.05c-.24-.32-1.19-1.15-2.76-1.15-1.65,0-2.91.82-3.26,1.14l-1.13-1.24c.64-.59,2.29-1.58,4.39-1.58s3.6,1.15,4.11,1.83l-1.35,1Z"></path>
  <path class="st2" d="M19.74,18.07c-.59-.64-1.58-2.29-1.58-4.39s1.15-3.6,1.83-4.11l1,1.35c-.32.24-1.15,1.19-1.15,2.76,0,1.65.82,2.91,1.14,3.25l-1.24,1.13h0Z"></path>
  <path class="st2" d="M5.68,18.18l-1-1.35c.32-.24,1.15-1.19,1.15-2.76,0-1.65-.82-2.91-1.14-3.26l1.24-1.13c.59.64,1.58,2.29,1.58,4.39s-1.15,3.6-1.83,4.11Z"></path>
</svg>